<?xml version="1.0" encoding="iso-8859-1"?>
<!-- Generator: Adobe Illustrator 19.0.0, SVG Export Plug-In . SVG Version: 6.00 Build 0)  -->
<svg version="1.1" id="Capa_1" xmlns="http://www.w3.org/2000/svg" xmlns:xlink="http://www.w3.org/1999/xlink" x="0px" y="0px"
	 viewBox="0 0 512 512" style="enable-background:new 0 0 512 512;" xml:space="preserve">
<g>
	<g>
		<path d="M443.062,347.665c-38.012,0-68.938,30.925-68.938,68.937c0,4.127,0.386,8.164,1.084,12.094H228.947
			c-4.15,0-7.515,3.365-7.515,7.515s3.365,7.515,7.515,7.515h150.746c10.555,24.565,34.982,41.815,63.369,41.815
			c38.012,0,68.938-30.925,68.938-68.938C512,378.591,481.075,347.665,443.062,347.665z M443.062,470.51
			c-29.725,0-53.908-24.183-53.908-53.908s24.183-53.907,53.908-53.907c29.725,0,53.908,24.183,53.908,53.908
			S472.787,470.51,443.062,470.51z"/>
	</g>
</g>
<g>
	<g>
		<path d="M431.094,327.498l-80.467-34.858c-0.943-0.409-1.96-0.619-2.987-0.619H195.189v-49.023h83.829v21.936
			c0,4.15,3.365,7.515,7.515,7.515h61.108c4.151,0,7.515-3.365,7.515-7.515v-29.451c0-2.192-0.958-4.275-2.621-5.703l-56.691-48.637
			c-1.363-1.169-3.098-1.812-4.894-1.812h-134.42c-4.15,0-7.515,3.365-7.515,7.515v48.637c0,4.15,3.365,7.515,7.515,7.515h23.629
			v50.04l-0.999,0.2c-10.225,2.042-19.992,5.443-29.096,10.01l-49.38-139.274c0-0.001-0.001-0.002-0.001-0.003L53.704,31.464
			c-1.063-2.999-3.901-5.004-7.083-5.004H7.515C3.365,26.46,0,29.825,0,33.975s3.365,7.515,7.515,7.515h33.797l44.107,124.402
			l-51.578,97.844c-0.534,1.014-0.83,2.136-0.864,3.281l-3.377,113.722c-0.055,1.839,0.567,3.634,1.748,5.046l20.43,24.418
			c1.486,1.776,3.619,2.692,5.767,2.692c1.701,0,3.412-0.574,4.818-1.751c3.183-2.663,3.604-7.402,0.941-10.586l-18.597-22.226
			l3.24-109.126l44.304-84.043L136.868,311c-20.135,13.685-35.812,33.59-44.149,57.157c-12.324,12.46-19.95,29.578-19.95,48.446
			c0,38.012,30.925,68.938,68.938,68.938c38.012,0,68.937-30.925,68.937-68.938c0-28.85-17.824-53.604-43.032-63.867l-12.477-35.192
			c8.389-4.405,17.452-7.667,26.975-9.569l4.62-0.926h0.908c0.013,0,0.026,0.002,0.039,0.002h133.648
			c0.013,0,0.026-0.002,0.039-0.002h24.719l79.037,34.239c3.809,1.65,8.233-0.101,9.882-3.908
			C436.652,333.572,434.901,329.147,431.094,327.498z M142.087,325.719l7.968,22.471c-2.738-0.333-5.521-0.523-8.347-0.523
			c-8.627,0-16.881,1.607-24.499,4.514C123.854,341.9,132.304,332.94,142.087,325.719z M195.614,416.602
			c0,29.726-24.183,53.908-53.907,53.908c-29.725,0-53.908-24.183-53.908-53.908s24.183-53.907,53.908-53.907
			C171.432,362.695,195.614,386.878,195.614,416.602z M164.045,227.967V194.36h124.123l51.958,44.576v18.481h-46.079v-21.936
			c0-4.15-3.364-7.515-7.515-7.515H164.045z"/>
	</g>
</g>
<g>
	<g>
		<path d="M443.062,386.054c-16.845,0-30.548,13.704-30.548,30.548c0,16.845,13.704,30.549,30.548,30.549
			c2.046,0,4.095-0.204,6.088-0.608c4.068-0.824,6.697-4.789,5.872-8.857c-0.824-4.067-4.78-6.698-8.857-5.872
			c-1.013,0.205-2.058,0.31-3.104,0.31c-8.557,0-15.518-6.962-15.518-15.519c0-8.557,6.962-15.518,15.518-15.518
			s15.518,6.962,15.518,15.518c0,4.15,3.365,7.515,7.515,7.515c4.151,0,7.515-3.365,7.515-7.515
			C473.61,399.758,459.907,386.054,443.062,386.054z"/>
	</g>
</g>
<g>
	<g>
		<path d="M141.707,386.054c-16.844,0-30.549,13.704-30.549,30.548c0,16.845,13.704,30.549,30.549,30.549
			c2.047,0,4.095-0.205,6.088-0.608c4.068-0.825,6.697-4.789,5.872-8.857c-0.824-4.067-4.788-6.7-8.857-5.872
			c-1.013,0.205-2.057,0.31-3.103,0.31c-8.557,0-15.519-6.962-15.519-15.519c0-8.557,6.962-15.518,15.519-15.518
			c8.557,0,15.518,6.962,15.518,15.518c0,4.15,3.365,7.515,7.515,7.515c4.15,0,7.515-3.365,7.515-7.515
			C172.254,399.758,158.551,386.054,141.707,386.054z"/>
	</g>
</g>
<g>
	<g>
		<path d="M192.987,204.97c-0.341-0.341-0.731-0.661-1.142-0.932c-0.401-0.271-0.842-0.501-1.292-0.691
			c-0.461-0.18-0.932-0.331-1.413-0.431c-0.962-0.19-1.964-0.19-2.936,0c-0.481,0.1-0.952,0.25-1.403,0.431
			c-0.451,0.19-0.892,0.421-1.293,0.691c-0.421,0.271-0.802,0.591-1.152,0.932c-0.341,0.351-0.651,0.731-0.932,1.142
			c-0.271,0.411-0.501,0.852-0.691,1.303c-0.18,0.451-0.331,0.922-0.421,1.403c-0.1,0.491-0.15,0.982-0.15,1.473
			s0.05,0.982,0.15,1.463c0.09,0.481,0.24,0.952,0.421,1.413c0.19,0.451,0.421,0.882,0.691,1.293
			c0.281,0.411,0.591,0.792,0.932,1.142c0.351,0.351,0.731,0.661,1.152,0.932c0.401,0.271,0.842,0.501,1.293,0.691
			c0.451,0.19,0.922,0.331,1.403,0.431c0.491,0.1,0.982,0.15,1.473,0.15c0.491-0.001,0.982-0.05,1.463-0.15
			c0.481-0.1,0.952-0.24,1.413-0.431c0.451-0.19,0.892-0.421,1.293-0.691c0.411-0.271,0.802-0.581,1.142-0.932
			c0.351-0.351,0.661-0.731,0.932-1.142c0.271-0.411,0.511-0.842,0.691-1.293c0.19-0.461,0.341-0.932,0.431-1.413
			c0.1-0.481,0.15-0.972,0.15-1.463C195.191,208.306,194.39,206.373,192.987,204.97z"/>
	</g>
</g>
<g>
	<g>
		<path d="M231.703,208.816c-0.1-0.481-0.25-0.952-0.431-1.403c-0.19-0.451-0.421-0.892-0.691-1.303
			c-0.281-0.411-0.591-0.792-0.942-1.142c-1.733-1.743-4.328-2.545-6.773-2.054c-0.481,0.1-0.952,0.24-1.413,0.431
			c-0.451,0.19-0.892,0.421-1.292,0.691c-0.411,0.271-0.802,0.591-1.142,0.932c-0.351,0.351-0.661,0.731-0.932,1.142
			c-0.271,0.411-0.511,0.852-0.691,1.303c-0.19,0.451-0.341,0.922-0.431,1.403c-0.1,0.481-0.15,0.982-0.15,1.473
			c0,1.974,0.802,3.908,2.204,5.31c0.341,0.351,0.731,0.661,1.142,0.932c0.401,0.271,0.842,0.501,1.293,0.691
			c0.461,0.19,0.932,0.331,1.413,0.431c0.481,0.1,0.972,0.15,1.463,0.15c1.984,0,3.918-0.802,5.31-2.204
			c1.403-1.403,2.204-3.336,2.204-5.31C231.843,209.798,231.793,209.307,231.703,208.816z"/>
	</g>
</g>
<g>
	<g>
		<path d="M268.343,208.817c-0.09-0.481-0.229-0.952-0.421-1.403c-0.189-0.451-0.421-0.892-0.69-1.302
			c-0.271-0.411-0.591-0.792-0.932-1.142c-0.352-0.341-0.731-0.661-1.143-0.932c-0.411-0.271-0.852-0.501-1.303-0.691
			s-0.922-0.331-1.403-0.431c-0.972-0.19-1.974-0.19-2.936,0c-0.48,0.1-0.952,0.24-1.413,0.431c-0.451,0.19-0.882,0.421-1.292,0.691
			c-0.411,0.271-0.792,0.591-1.142,0.932c-0.351,0.351-0.661,0.731-0.932,1.142c-0.271,0.411-0.501,0.852-0.691,1.302
			c-0.19,0.451-0.331,0.922-0.431,1.403c-0.1,0.491-0.15,0.982-0.15,1.473c0,0.491,0.05,0.982,0.15,1.463
			c0.1,0.48,0.24,0.951,0.431,1.413c0.19,0.451,0.421,0.882,0.691,1.292c0.271,0.411,0.581,0.792,0.932,1.142
			c0.351,0.351,0.731,0.661,1.142,0.932c0.411,0.271,0.841,0.501,1.292,0.691c0.461,0.19,0.933,0.331,1.413,0.431
			c0.481,0.1,0.972,0.15,1.463,0.15c0.491,0,0.982-0.05,1.473-0.15c0.481-0.1,0.952-0.24,1.403-0.431
			c0.451-0.19,0.892-0.421,1.303-0.691c0.411-0.271,0.792-0.581,1.143-0.932c0.341-0.351,0.66-0.731,0.932-1.142
			c0.27-0.411,0.501-0.842,0.69-1.292c0.19-0.461,0.331-0.932,0.421-1.413c0.101-0.481,0.15-0.972,0.15-1.463
			C268.493,209.799,268.443,209.308,268.343,208.817z"/>
	</g>
</g>
<g>
	<g>
		<path d="M247.658,249.674h-35.894c-4.15,0-7.515,3.365-7.515,7.515c0,4.15,3.365,7.515,7.515,7.515h35.895
			c4.15,0,7.515-3.365,7.515-7.515C255.172,253.039,251.808,249.674,247.658,249.674z"/>
	</g>
</g>
<g>
	<g>
		<path d="M247.658,269.926h-35.894c-4.15,0-7.515,3.365-7.515,7.515s3.365,7.515,7.515,7.515h35.895
			c4.15,0,7.515-3.365,7.515-7.515C255.172,273.29,251.808,269.926,247.658,269.926z"/>
	</g>
</g>
<g>
</g>
<g>
</g>
<g>
</g>
<g>
</g>
<g>
</g>
<g>
</g>
<g>
</g>
<g>
</g>
<g>
</g>
<g>
</g>
<g>
</g>
<g>
</g>
<g>
</g>
<g>
</g>
<g>
</g>
</svg>
